PathFileType	4	(X/Y/Z)	C:\Users\WrightLab\Desktop\Jo\P5V134.trc
DataRate	CameraRate	NumFrames	NumMarkers	Units	OrigDataRate	OrigDataStartFrame	OrigNumFrames
100.00	100.00	       23	19	mm	100.00	265	       529
Frame#	Time	Headset_Front			Headset_Back			Headset_Left			Headset_Right			Left_Shoulder			Right_Shoulder			Sternum			C7			Left Elbow			Right Elbow			Left Wrist			Right Wrist			Left ASIS			Right ASIS			S2			Left Knee			Right Knee			Left Ankle			Right Ankle			
		X1	Y1	Z1	X2	Y2	Z2	X3	Y3	Z3	X4	Y4	Z4	X5	Y5	Z5	X6	Y6	Z6	X7	Y7	Z7	X8	Y8	Z8	X9	Y9	Z9	X10	Y10	Z10	X11	Y11	Z11	X12	Y12	Z12	X13	Y13	Z13	X14	Y14	Z14	X15	Y15	Z15	X16	Y16	Z16	X17	Y17	Z17	X18	Y18	Z18	X19	Y19	Z19	

265	2.640	-172.81401	1562.11255	568.07532										141.08116	1509.05713	489.49130	-190.05215	1467.10413	242.58344	-93.03254	1342.55212	439.15579	38.27211	1539.43652	267.28278	244.40698	1253.09802	515.85852	-185.12131	1205.20386	121.06446	63.41561	1206.58020	629.94788	-265.69647	1089.86853	315.46887	10.60691	948.78113	530.32794	-196.36147	970.13702	322.32840	141.24059	988.75879	254.35201	-19.95414	535.68701	593.94653	-149.66919	509.75232	287.29608	232.48856	273.62717	345.44641	-4.81521	111.02710	262.35165	
266	2.650	-179.68005	1563.12134	576.75897										134.53510	1510.50378	498.73404	-197.36206	1468.83911	250.06021	-102.00438	1344.12732	447.40582				238.37411	1253.92798	521.39832	-193.54601	1206.74707	128.50743	58.57569	1207.65869	636.35291	-273.93701	1091.85962	323.26682	3.38966	950.59967	537.18958	-201.25967	970.56787	328.15891	133.88554	990.03510	262.90479	-35.12222	541.01379	603.32599	-150.78482	510.23383	289.58090	210.69128	267.84201	365.10892	-4.97130	111.94052	261.93411	
267	2.660	-186.12491	1563.93665	585.13916										126.08353	1509.53162	505.90851	-204.89206	1469.99207	257.61322	-110.21709	1345.11365	454.33533				232.15106	1254.86755	527.60236	-201.77164	1208.01282	135.98479	52.70975	1206.96448	643.31738	-282.19049	1093.73572	331.09723	-4.98785	952.04297	544.46643	-205.40442	970.85876	334.29538	126.42410	991.15845	271.82663	-49.63192	546.93915	613.26208	-152.15596	510.77094	292.26233	187.80446	260.80246	385.34344	-5.06347	113.03677	262.44290	
268	2.670	-192.99034	1564.55310	593.68524										118.12740	1509.84668	513.27899	-212.36134	1471.33777	265.29205	-117.91478	1345.60193	461.49265				225.33768	1255.53137	533.53668	-210.15053	1209.86621	143.01234	47.00917	1206.54602	650.24689	-290.27615	1095.76843	338.51892	-13.93095	953.39392	551.10077	-209.80818	971.28156	339.64545	118.81758	992.38300	280.21805	-62.41035	553.14368	623.26141	-153.82475	511.21887	294.64017	164.62526	253.14160	405.67111	-4.95033	113.61527	262.92850	
269	2.680	-199.53790	1565.09106	602.34503										111.06921	1510.31934	522.20612	-219.18086	1471.98657	272.43842	-126.39407	1345.98730	468.04660				219.78728	1255.23303	538.87634	-218.47089	1211.11829	150.10817	41.51346	1206.53162	657.24719	-298.17313	1097.62561	346.33603	-23.24500	954.04169	558.00568	-214.40125	971.23523	344.83389	110.56618	993.31476	289.24323	-72.93603	559.00714	633.59705	-155.44424	511.65073	297.35944	141.43358	244.78191	426.40128	-4.57116	114.38139	263.81766	
270	2.690	-206.03180	1565.24658	610.66602										102.50825	1509.72803	529.10718	-226.51376	1473.11865	279.90771	-133.94168	1346.35876	475.46274				212.76819	1255.32642	545.41321	-226.47537	1212.07361	157.43675	35.54079	1206.33301	664.36469	-306.04507	1099.17432	353.93719	-32.53089	954.71667	564.11475	-218.75436	971.36627	351.55817	102.28510	994.15936	298.27606	-85.05818	563.86694	643.04089	-157.41109	512.25409	299.93005	117.34563	235.97447	447.39789	-4.18766	115.10259	264.36688	
271	2.700	-212.07802	1565.44226	619.38751										95.40485	1509.64648	538.04224	-234.12680	1474.44983	287.61783	-140.99954	1345.65186	480.95514				206.76988	1255.68323	551.44446	-234.50391	1213.09961	164.79845	30.23609	1205.67688	671.26910	-314.14743	1101.22424	361.85199	-42.08897	955.43677	570.34534	-223.64627	972.13324	356.65869	93.99576	994.41351	307.00851	-96.54203	568.28125	651.96185	-159.14548	512.81818	302.28754	92.85431	226.16266	468.78204	-3.99951	116.06973	265.03528	
272	2.710	-219.15858	1565.28333	627.62476										88.21480	1509.14685	545.53516	-241.29283	1475.25085	294.65021	-149.55641	1346.34644	486.30841				199.92152	1255.44324	557.67804	-242.46785	1213.94958	172.05664	25.37963	1205.83984	678.26575	-322.05057	1102.31616	369.57617	-51.45964	955.61780	576.91162	-228.32359	972.63287	361.34937	85.00204	994.54559	315.65289	-107.94907	572.59723	660.91046	-160.29831	512.47040	304.37668	67.96730	216.42728	490.58749	-3.34459	116.65504	266.25299	
273	2.720	-226.18774	1565.66089	636.35907										79.96861	1508.77332	553.23834	-249.19850	1476.02551	301.86227	-156.17712	1345.91406	495.31558				193.34062	1255.14746	563.64014	-250.68871	1214.68298	179.61842	19.32940	1205.75403	684.70227	-329.90268	1103.98438	377.43826	-60.48553	955.85742	582.47266	-233.72836	973.21741	367.23718	75.17493	995.12720	324.20035	-118.75035	575.87524	669.14496	-163.26398	513.03827	307.22501	43.03052	205.69176	512.97046	-3.54484	118.14662	266.13040	
274	2.730	-232.88240	1565.31506	644.80847	-15.57441	1533.52686	421.85410							72.19358	1507.77930	561.10620	-256.36429	1476.80420	309.35516	-164.31761	1345.72437	502.44449				186.27805	1255.12292	570.05713	-258.52200	1215.43872	187.03246	13.52579	1205.04712	692.37988	-337.58585	1105.01758	385.59845	-69.81641	956.26599	588.56519	-239.04340	973.28650	372.64789	66.54601	994.52563	333.09705	-128.89114	578.51044	677.23828	-165.10297	513.26361	309.46155	16.23376	194.80045	535.90033	-3.31578	118.95877	267.31976	
275	2.740	-239.05988	1564.71179	653.26251	-22.77628	1533.26123	431.42972							65.40459	1507.75671	568.76819	-263.46979	1477.12878	316.76825	-173.10941	1346.19995	507.70453				179.80333	1254.69971	576.09662	-266.90155	1216.31104	194.74518	7.20957	1204.04675	699.06641	-345.40326	1106.42078	393.39151	-77.96982	955.97949	595.39783	-245.67296	973.36169	377.86584	57.26043	994.24084	341.84375	-138.29105	580.01965	684.39703	-166.90199	512.99969	311.39706	-9.29930	183.56795	558.76086	-3.16080	119.80244	267.71887	
276	2.750	-245.67699	1564.38525	662.32703	-29.99955	1532.79565	441.11942							58.14492	1506.34998	576.87317	-270.81778	1477.71582	324.13321	-179.55130	1345.32458	517.36102				172.56487	1253.36633	582.68378	-274.94684	1217.42017	201.64865	0.90548	1202.90063	706.42523	-353.24323	1107.45166	401.71851	-86.09200	955.56348	601.59302	-252.20883	973.37653	382.90338	48.93649	994.85553	349.54391	-148.29079	580.61792	691.13135	-169.18723	512.81476	314.08789	-35.87247	172.89378	582.15240	-2.99994	121.34377	269.00165	
277	2.760	-252.15445	1563.22620	670.82874	-37.08123	1532.25562	450.79236							51.81409	1506.03015	585.13184	-278.02652	1478.01196	332.05997	-188.26753	1345.46875	523.33636				165.44511	1253.65991	589.07080	-282.71683	1216.93005	210.83270	-5.12550	1202.47656	713.41815	-361.03143	1108.63354	409.73187	-93.75167	955.21069	607.72906	-259.06723	973.02393	390.06085	42.25293	995.55463	356.51523	-157.87405	581.14429	698.24115	-171.13844	513.03967	316.66528	-62.77219	162.57281	606.87769	-3.22704	122.75179	269.58432	
278	2.770	-258.06613	1562.05688	679.12543	-44.30107	1531.69031	460.67612							43.91214	1505.41858	592.84973	-285.09125	1478.51050	339.36469	-195.31940	1344.27075	532.85706				159.00331	1252.11304	596.22211	-290.56326	1217.36499	218.23730	-11.25341	1201.02185	721.01776	-368.39377	1109.39319	417.90540	-101.53901	954.71387	615.64697	-266.59906	973.11182	395.63675	35.30476	995.86688	364.58163	-166.49202	579.57306	704.45276	-173.62373	512.63892	319.69583	-90.33517	152.50121	630.82910	-2.91402	124.03063	270.25031	
279	2.780	-265.13989	1561.56482	688.32550	-51.27775	1530.98059	470.65875							36.08928	1504.05054	600.72235	-292.41498	1478.68298	347.07028	-203.06638	1344.53809	540.22308				151.64084	1251.68542	601.73926	-298.52524	1217.94763	226.14182	-17.98983	1199.72217	728.28137	-376.12808	1110.11267	426.13660	-109.51411	954.29779	622.45947	-274.34476	972.36536	402.81143	28.73323	996.08063	371.48013	-175.14668	578.53430	710.35327	-176.00069	512.56940	322.62653	-117.05769	143.88037	654.15070	-3.12615	125.94423	271.91272	
280	2.790	-271.04285	1560.45850	696.93005	-58.37720	1530.18127	480.65430							28.48724	1503.54419	608.66858	-299.59518	1478.91577	354.83997	-210.82426	1343.67188	547.92963				144.72386	1249.68359	609.27600	-306.64584	1218.24097	233.86742	-24.16681	1198.26575	734.85217	-383.97974	1110.93665	434.41928	-116.87215	952.90454	630.13812	-281.68518	972.21057	408.48193	22.26112	995.91974	379.70886	-183.95731	575.93213	716.63989	-179.09625	512.57935	325.72031	-143.95897	136.47275	677.27240	-3.01465	127.08907	273.22598	
281	2.800	-278.11020	1559.47754	705.64520	-76.92415	1544.16663	396.82568							21.56111	1502.05444	617.66882	-306.66885	1479.01208	362.43515	-219.06348	1343.50208	556.05078				137.93721	1248.34387	615.91913	-314.81342	1218.18262	241.94064	-30.11839	1196.97144	742.77655	-391.73737	1111.29639	442.75092	-124.63298	951.94330	637.70801	-288.99231	971.75275	415.48785	15.66009	995.41760	389.01019	-191.66595	572.78174	722.02759	-179.96219	512.75256	329.37500	-170.06735	130.57704	700.94409	-3.04101	128.91293	274.66794	
282	2.810	-284.98883	1558.36145	714.72394	-332.08713	1632.86951	592.33997							14.12838	1499.98926	625.89093	-314.08557	1478.97913	370.75967	-226.95999	1342.74976	563.68225	-84.56654	1543.64661	404.37714	130.19661	1246.91943	620.09961	-322.50940	1218.25525	250.13744	-36.99018	1195.39905	749.70996	-399.34753	1112.10107	451.44861	-133.45085	950.58411	644.36371	-296.74454	971.90613	421.17517	9.01141	995.03583	397.49564	-198.87379	568.55554	727.60303	-183.98355	512.55261	333.07254	-195.26003	125.43972	720.79456	-2.59906	130.82877	276.00027	
283	2.820	-290.70074	1556.82385	723.45813	-338.36258	1631.65747	601.49713							6.83719	1498.75549	633.62061	-321.41229	1478.79700	378.66788	-235.20663	1341.95862	571.37708	-91.75517	1542.63135	412.62094	123.57063	1245.95886	628.54095	-330.43478	1218.53430	258.56702	-42.89306	1193.69495	757.87775	-406.91272	1112.54419	459.71634	-141.79721	949.55560	653.45837	-304.57349	971.81128	427.52402	1.86891	994.03021	406.26178	-205.67462	564.50824	731.53741	-187.54225	512.34052	336.50220	-220.17693	122.97012	740.07977	-2.93542	132.77142	277.26953	
284	2.830	-296.72864	1554.99573	732.40039	-98.66708	1540.02051	423.57315							-0.83152	1495.66638	640.43567	-328.49304	1478.83289	386.82910	-243.29773	1340.77991	579.09558	-344.73822	1630.66895	610.77472	115.00196	1244.26538	633.95715	-338.53360	1218.14844	266.61911	-49.77803	1192.63757	765.20496	-414.82654	1112.86584	468.37119	-152.13139	949.09131	661.96729	-312.09036	971.42639	434.83591	-5.39556	993.68542	414.28146	-211.78603	559.41803	736.41687	-189.13718	511.30673	341.34247	-245.01328	120.83365	756.27307	-3.64141	134.92079	278.75180	
285	2.840	-303.55893	1553.93811	741.67651	-351.39047	1629.40503	620.19904							-8.13365	1493.55115	647.71313	-335.66809	1478.15344	395.14706	-251.29016	1339.92151	586.87939	-104.83995	1539.53662	431.39453	109.33178	1242.08130	640.95355	-346.99918	1217.95093	275.04398	-55.83027	1190.45239	773.21393	-422.53381	1112.73096	477.09814	-162.43091	947.87140	670.13763	-319.81296	971.36536	440.68182	-12.56003	992.84546	422.83646	-217.43239	554.02686	741.22760	-196.28085	511.25104	345.15701	-266.37100	120.12206	770.91693	-4.17217	136.47089	280.11969	
286	2.850	-309.85016	1552.62988	750.86285	-358.20374	1628.44995	629.71051							-14.00452	1491.16968	656.79639	-342.87149	1477.99854	403.52658	-259.09625	1338.81067	594.95428	-112.09734	1538.08191	439.63208	103.47086	1240.43213	649.29944	-355.42230	1217.32971	282.84424	-62.49915	1188.73572	781.22931	-430.28809	1113.12036	485.90512	-172.48720	946.48175	678.05750	-328.04608	970.99823	448.05240	-18.36098	991.43939	431.07822	-221.62747	547.08752	745.03827	-200.67278	511.56656	349.69858	-285.79077	120.12928	782.74359	-5.49442	138.96713	282.04697	
287	2.860	-315.52185	1550.76282	759.69690	-119.27781	1536.80750	447.75845							-21.54145	1489.17297	662.92877	-349.78180	1477.28882	412.09085	-267.15414	1337.87732	603.23138	-363.52795	1626.60022	638.74872	94.27327	1237.48608	654.94891	-363.34348	1216.95276	291.35513	-68.76219	1186.57947	788.99030	-438.12897	1112.92041	494.93149	-183.45593	945.56940	686.49219	-336.53214	970.97430	455.37122	-26.86422	990.14996	440.39868	-226.27504	540.66089	749.05487	-205.19629	511.58530	354.58893	-303.66467	119.37606	792.89215	-6.88846	141.50970	283.33292	
